<mxfile host="app.diagrams.net" modified="2020-11-18T12:13:59.907Z" agent="5.0 (Windows)" etag="4Gwe3Y_tePeHftsoTQ3S" version="13.9.9" type="github">
  <diagram id="jioUKnNFZTw7eMknhto5" name="Page-1">
    <mxGraphModel dx="1029" dy="119" grid="1" gridSize="10" guides="1" tooltips="1" connect="1" arrows="1" fold="1" page="1" pageScale="1" pageWidth="827" pageHeight="1169" math="0" shadow="0">
      <root>
        <mxCell id="0" />
        <mxCell id="1" parent="0" />
        <UserObject label="Start menu" lucidchartObjectId="O_gPqCpK4Um_" id="OCLTKY3yRRcDZKbhJLKk-4">
          <mxCell style="html=1;overflow=block;whiteSpace=wrap;;whiteSpace=wrap;fontSize=13;fontColor=#333333;spacing=7;strokeColor=#5e5e5e;strokeOpacity=100;rounded=1;absoluteArcSize=1;arcSize=7;strokeWidth=2;" vertex="1" zOrder="1" parent="1">
            <mxGeometry x="492" y="20" width="96" height="72" as="geometry" />
          </mxCell>
        </UserObject>
        <UserObject label="Mainmenu" lucidchartObjectId="-_gPZYJimOCY" id="OCLTKY3yRRcDZKbhJLKk-5">
          <mxCell style="html=1;overflow=block;whiteSpace=wrap;rounded=1;arcSize=50;whiteSpace=wrap;fontSize=13;fontColor=#333333;spacing=3;strokeColor=#5e5e5e;strokeOpacity=100;strokeWidth=2;" vertex="1" zOrder="2" parent="1">
            <mxGeometry x="246" y="140" width="96" height="48" as="geometry" />
          </mxCell>
        </UserObject>
        <UserObject label="Submenu" lucidchartObjectId="._gPOvNOX3bD" id="OCLTKY3yRRcDZKbhJLKk-6">
          <mxCell style="html=1;overflow=block;whiteSpace=wrap;rounded=1;arcSize=50;whiteSpace=wrap;fontSize=13;fontColor=#333333;spacing=3;strokeColor=#5e5e5e;strokeOpacity=100;strokeWidth=2;" vertex="1" zOrder="3" parent="1">
            <mxGeometry x="624" y="140" width="96" height="48" as="geometry" />
          </mxCell>
        </UserObject>
        <UserObject label="" lucidchartObjectId="H.gPzRsKAiU0" id="OCLTKY3yRRcDZKbhJLKk-7">
          <mxCell style="html=1;jettySize=18;whiteSpace=wrap;fontSize=11;strokeColor=#5E5E5E;rounded=1;arcSize=12;edgeStyle=orthogonalEdgeStyle;startArrow=none;;endArrow=block;endFill=1;;exitX=0.5;exitY=1.013;exitPerimeter=0;entryX=0.5;entryY=-0.019;entryPerimeter=0;" edge="1" parent="1" source="OCLTKY3yRRcDZKbhJLKk-4" target="OCLTKY3yRRcDZKbhJLKk-5">
            <mxGeometry width="100" height="100" relative="1" as="geometry">
              <Array as="points" />
            </mxGeometry>
          </mxCell>
        </UserObject>
        <UserObject label="" lucidchartObjectId="9.gP.Oea3rVp" id="OCLTKY3yRRcDZKbhJLKk-8">
          <mxCell style="html=1;jettySize=18;whiteSpace=wrap;fontSize=11;strokeColor=#5E5E5E;rounded=1;arcSize=12;edgeStyle=orthogonalEdgeStyle;startArrow=none;;endArrow=block;endFill=1;;exitX=0.5;exitY=1.013;exitPerimeter=0;entryX=0.5;entryY=-0.019;entryPerimeter=0;" edge="1" parent="1" source="OCLTKY3yRRcDZKbhJLKk-4" target="OCLTKY3yRRcDZKbhJLKk-6">
            <mxGeometry width="100" height="100" relative="1" as="geometry">
              <Array as="points" />
            </mxGeometry>
          </mxCell>
        </UserObject>
        <UserObject label="New project button" lucidchartObjectId="hahPa3Uu.GME" id="OCLTKY3yRRcDZKbhJLKk-9">
          <mxCell style="html=1;overflow=block;whiteSpace=wrap;shape=hexagon;perimeter=hexagonPerimeter2;whiteSpace=wrap;fontSize=9;fontColor=#333333;spacing=3;strokeColor=#5e5e5e;strokeOpacity=100;rounded=1;absoluteArcSize=1;arcSize=7;strokeWidth=2;" vertex="1" zOrder="6" parent="1">
            <mxGeometry x="144" y="229" width="60" height="48" as="geometry" />
          </mxCell>
        </UserObject>
        <UserObject label="Choose Preset" lucidchartObjectId="SahPO.ua7J8M" id="OCLTKY3yRRcDZKbhJLKk-10">
          <mxCell style="html=1;overflow=block;whiteSpace=wrap;shape=hexagon;perimeter=hexagonPerimeter2;whiteSpace=wrap;fontSize=9;fontColor=#333333;spacing=3;strokeColor=#5e5e5e;strokeOpacity=100;rounded=1;absoluteArcSize=1;arcSize=7;strokeWidth=2;" vertex="1" zOrder="7" parent="1">
            <mxGeometry x="264" y="230" width="60" height="48" as="geometry" />
          </mxCell>
        </UserObject>
        <UserObject label="Browse Directory" lucidchartObjectId="VahP2knF2CIP" id="OCLTKY3yRRcDZKbhJLKk-11">
          <mxCell style="html=1;overflow=block;whiteSpace=wrap;shape=hexagon;perimeter=hexagonPerimeter2;whiteSpace=wrap;fontSize=9;fontColor=#333333;spacing=3;strokeColor=#5e5e5e;strokeOpacity=100;rounded=1;absoluteArcSize=1;arcSize=7;strokeWidth=2;" vertex="1" zOrder="8" parent="1">
            <mxGeometry x="384" y="229" width="60" height="48" as="geometry" />
          </mxCell>
        </UserObject>
        <UserObject label="" lucidchartObjectId="obhPsLzpxxCn" id="OCLTKY3yRRcDZKbhJLKk-12">
          <mxCell style="html=1;jettySize=18;whiteSpace=wrap;fontSize=11;strokeColor=#5E5E5E;rounded=1;arcSize=12;edgeStyle=orthogonalEdgeStyle;startArrow=none;;endArrow=block;endFill=1;;exitX=0.5;exitY=1.019;exitPerimeter=0;entryX=0.532;entryY=-0.019;entryPerimeter=0;" edge="1" parent="1" source="OCLTKY3yRRcDZKbhJLKk-5" target="OCLTKY3yRRcDZKbhJLKk-9">
            <mxGeometry width="100" height="100" relative="1" as="geometry">
              <Array as="points" />
            </mxGeometry>
          </mxCell>
        </UserObject>
        <UserObject label="" lucidchartObjectId="KbhPi5c2aBTN" id="OCLTKY3yRRcDZKbhJLKk-13">
          <mxCell style="html=1;jettySize=18;whiteSpace=wrap;fontSize=11;strokeColor=#5E5E5E;rounded=1;arcSize=12;edgeStyle=orthogonalEdgeStyle;startArrow=none;;endArrow=block;endFill=1;;exitX=0.5;exitY=1.019;exitPerimeter=0;entryX=0.5;entryY=-0.019;entryPerimeter=0;" edge="1" parent="1" source="OCLTKY3yRRcDZKbhJLKk-5" target="OCLTKY3yRRcDZKbhJLKk-11">
            <mxGeometry width="100" height="100" relative="1" as="geometry">
              <Array as="points" />
            </mxGeometry>
          </mxCell>
        </UserObject>
        <UserObject label="" lucidchartObjectId="YbhPNtv5bok1" id="OCLTKY3yRRcDZKbhJLKk-14">
          <mxCell style="html=1;jettySize=18;whiteSpace=wrap;fontSize=11;strokeColor=#5E5E5E;rounded=1;arcSize=12;edgeStyle=orthogonalEdgeStyle;startArrow=none;;endArrow=block;endFill=1;;exitX=0.5;exitY=1.019;exitPerimeter=0;entryX=0.5;entryY=-0.019;entryPerimeter=0;" edge="1" parent="1" source="OCLTKY3yRRcDZKbhJLKk-5" target="OCLTKY3yRRcDZKbhJLKk-10">
            <mxGeometry width="100" height="100" relative="1" as="geometry">
              <Array as="points" />
            </mxGeometry>
          </mxCell>
        </UserObject>
        <UserObject label="Recent projects" lucidchartObjectId="vdhP5ikqLUoE" id="OCLTKY3yRRcDZKbhJLKk-15">
          <mxCell style="html=1;overflow=block;whiteSpace=wrap;rounded=1;arcSize=50;whiteSpace=wrap;fontSize=13;fontColor=#333333;spacing=3;strokeColor=#5E5E5E;strokeWidth=2;" vertex="1" zOrder="13" parent="1">
            <mxGeometry x="744" y="229" width="96" height="48" as="geometry" />
          </mxCell>
        </UserObject>
        <UserObject label="" lucidchartObjectId="OdhPl46zoxT-" id="OCLTKY3yRRcDZKbhJLKk-16">
          <mxCell style="html=1;jettySize=18;whiteSpace=wrap;fontSize=11;strokeColor=#5E5E5E;rounded=1;arcSize=12;edgeStyle=orthogonalEdgeStyle;startArrow=none;;endArrow=block;endFill=1;;exitX=0.5;exitY=1.019;exitPerimeter=0;entryX=0.5;entryY=-0.019;entryPerimeter=0;" edge="1" parent="1" source="OCLTKY3yRRcDZKbhJLKk-6" target="OCLTKY3yRRcDZKbhJLKk-15">
            <mxGeometry width="100" height="100" relative="1" as="geometry">
              <Array as="points" />
            </mxGeometry>
          </mxCell>
        </UserObject>
        <UserObject label="About" lucidchartObjectId="7dhPa3A9.NVT" id="OCLTKY3yRRcDZKbhJLKk-17">
          <mxCell style="html=1;overflow=block;whiteSpace=wrap;rounded=1;arcSize=50;whiteSpace=wrap;fontSize=13;fontColor=#333333;spacing=3;strokeColor=#5E5E5E;strokeWidth=2;" vertex="1" zOrder="16" parent="1">
            <mxGeometry x="852" y="229" width="96" height="48" as="geometry" />
          </mxCell>
        </UserObject>
        <UserObject label="" lucidchartObjectId="_dhPloDzwEC0" id="OCLTKY3yRRcDZKbhJLKk-18">
          <mxCell style="html=1;jettySize=18;whiteSpace=wrap;fontSize=11;strokeColor=#5E5E5E;rounded=1;arcSize=12;edgeStyle=orthogonalEdgeStyle;startArrow=none;;endArrow=block;endFill=1;;exitX=0.5;exitY=1.019;exitPerimeter=0;entryX=0.5;entryY=-0.019;entryPerimeter=0;" edge="1" parent="1" source="OCLTKY3yRRcDZKbhJLKk-6" target="OCLTKY3yRRcDZKbhJLKk-17">
            <mxGeometry width="100" height="100" relative="1" as="geometry">
              <Array as="points" />
            </mxGeometry>
          </mxCell>
        </UserObject>
        <UserObject label="Logo (title bar buttons)" lucidchartObjectId="RehPHoHRc-c-" id="OCLTKY3yRRcDZKbhJLKk-19">
          <mxCell style="html=1;overflow=block;whiteSpace=wrap;rounded=1;arcSize=50;whiteSpace=wrap;fontSize=13;fontColor=#333333;spacing=3;strokeColor=#5E5E5E;strokeWidth=2;" vertex="1" zOrder="18" parent="1">
            <mxGeometry x="558" y="229" width="96" height="48" as="geometry" />
          </mxCell>
        </UserObject>
        <UserObject label="" lucidchartObjectId="2ehPYtVjD3oI" id="OCLTKY3yRRcDZKbhJLKk-20">
          <mxCell style="html=1;jettySize=18;whiteSpace=wrap;fontSize=11;strokeColor=#5E5E5E;rounded=1;arcSize=12;edgeStyle=orthogonalEdgeStyle;startArrow=none;;endArrow=block;endFill=1;;exitX=0.5;exitY=1.019;exitPerimeter=0;entryX=0.546;entryY=-0.019;entryPerimeter=0;" edge="1" parent="1" source="OCLTKY3yRRcDZKbhJLKk-6" target="OCLTKY3yRRcDZKbhJLKk-19">
            <mxGeometry width="100" height="100" relative="1" as="geometry">
              <Array as="points" />
            </mxGeometry>
          </mxCell>
        </UserObject>
        <UserObject label="{recent project buttons}" lucidchartObjectId="_fhP1PIFupey" id="OCLTKY3yRRcDZKbhJLKk-21">
          <mxCell style="html=1;overflow=block;whiteSpace=wrap;shape=cylinder;size=0.1;anchorPointDirection=0;boundedLbl=1;;whiteSpace=wrap;fontSize=13;fontColor=#333333;spacing=3;strokeColor=#5e5e5e;strokeOpacity=100;rounded=1;absoluteArcSize=1;arcSize=7;strokeWidth=2;" vertex="1" zOrder="20" parent="1">
            <mxGeometry x="756" y="295" width="72" height="72" as="geometry" />
          </mxCell>
        </UserObject>
        <UserObject label="" lucidchartObjectId="eghPBF6SNoaE" id="OCLTKY3yRRcDZKbhJLKk-22">
          <mxCell style="html=1;jettySize=18;whiteSpace=wrap;fontSize=11;strokeColor=#5E5E5E;rounded=1;arcSize=12;edgeStyle=orthogonalEdgeStyle;startArrow=none;;endArrow=block;endFill=1;;exitX=0.5;exitY=1.019;exitPerimeter=0;entryX=0.5;entryY=-0.013;entryPerimeter=0;" edge="1" parent="1" source="OCLTKY3yRRcDZKbhJLKk-15" target="OCLTKY3yRRcDZKbhJLKk-21">
            <mxGeometry width="100" height="100" relative="1" as="geometry">
              <Array as="points" />
            </mxGeometry>
          </mxCell>
        </UserObject>
        <UserObject label="About button" lucidchartObjectId="KghPyRlSVEZ6" id="OCLTKY3yRRcDZKbhJLKk-23">
          <mxCell style="html=1;overflow=block;whiteSpace=wrap;shape=hexagon;perimeter=hexagonPerimeter2;whiteSpace=wrap;fontSize=9;fontColor=#333333;spacing=3;strokeColor=#5e5e5e;strokeOpacity=100;rounded=1;absoluteArcSize=1;arcSize=7;strokeWidth=2;" vertex="1" zOrder="22" parent="1">
            <mxGeometry x="870" y="307" width="60" height="48" as="geometry" />
          </mxCell>
        </UserObject>
        <UserObject label="" lucidchartObjectId="RghPrpvtDJ4L" id="OCLTKY3yRRcDZKbhJLKk-24">
          <mxCell style="html=1;jettySize=18;whiteSpace=wrap;fontSize=11;strokeColor=#5E5E5E;rounded=1;arcSize=12;edgeStyle=orthogonalEdgeStyle;startArrow=none;;endArrow=block;endFill=1;;exitX=0.5;exitY=1.019;exitPerimeter=0;entryX=0.5;entryY=-0.019;entryPerimeter=0;" edge="1" parent="1" source="OCLTKY3yRRcDZKbhJLKk-17" target="OCLTKY3yRRcDZKbhJLKk-23">
            <mxGeometry width="100" height="100" relative="1" as="geometry">
              <Array as="points" />
            </mxGeometry>
          </mxCell>
        </UserObject>
        <UserObject label="Minimise button" lucidchartObjectId="XhhP4K34KvjL" id="OCLTKY3yRRcDZKbhJLKk-25">
          <mxCell style="html=1;overflow=block;whiteSpace=wrap;shape=hexagon;perimeter=hexagonPerimeter2;whiteSpace=wrap;fontSize=9;fontColor=#333333;spacing=3;strokeColor=#5e5e5e;strokeOpacity=100;rounded=1;absoluteArcSize=1;arcSize=7;strokeWidth=2;" vertex="1" zOrder="25" parent="1">
            <mxGeometry x="504" y="330" width="60" height="48" as="geometry" />
          </mxCell>
        </UserObject>
        <UserObject label="Zoom" lucidchartObjectId="XhhPjZ~aTa6P" id="OCLTKY3yRRcDZKbhJLKk-26">
          <mxCell style="html=1;overflow=block;whiteSpace=wrap;shape=hexagon;perimeter=hexagonPerimeter2;whiteSpace=wrap;fontSize=9;fontColor=#333333;spacing=3;strokeColor=#5e5e5e;strokeOpacity=100;rounded=1;absoluteArcSize=1;arcSize=7;strokeWidth=2;" vertex="1" zOrder="26" parent="1">
            <mxGeometry x="576" y="330" width="60" height="48" as="geometry" />
          </mxCell>
        </UserObject>
        <UserObject label="Close" lucidchartObjectId="XhhPVqc8MP-n" id="OCLTKY3yRRcDZKbhJLKk-27">
          <mxCell style="html=1;overflow=block;whiteSpace=wrap;shape=hexagon;perimeter=hexagonPerimeter2;whiteSpace=wrap;fontSize=9;fontColor=#333333;spacing=3;strokeColor=#5e5e5e;strokeOpacity=100;rounded=1;absoluteArcSize=1;arcSize=7;strokeWidth=2;" vertex="1" zOrder="27" parent="1">
            <mxGeometry x="648" y="330" width="60" height="48" as="geometry" />
          </mxCell>
        </UserObject>
        <UserObject label="" lucidchartObjectId="XhhP7-BACJFT" id="OCLTKY3yRRcDZKbhJLKk-28">
          <mxCell style="html=1;jettySize=18;whiteSpace=wrap;fontSize=11;strokeColor=#5E5E5E;rounded=1;arcSize=12;edgeStyle=orthogonalEdgeStyle;startArrow=none;;endArrow=block;endFill=1;;exitX=0.5;exitY=1.019;exitPerimeter=0;entryX=0.532;entryY=-0.019;entryPerimeter=0;" edge="1" parent="1" source="OCLTKY3yRRcDZKbhJLKk-19" target="OCLTKY3yRRcDZKbhJLKk-25">
            <mxGeometry width="100" height="100" relative="1" as="geometry">
              <Array as="points" />
            </mxGeometry>
          </mxCell>
        </UserObject>
        <UserObject label="" lucidchartObjectId="XhhPRL7qcvFf" id="OCLTKY3yRRcDZKbhJLKk-29">
          <mxCell style="html=1;jettySize=18;whiteSpace=wrap;fontSize=11;strokeColor=#5E5E5E;rounded=1;arcSize=12;edgeStyle=orthogonalEdgeStyle;startArrow=none;;endArrow=block;endFill=1;;exitX=0.5;exitY=1.019;exitPerimeter=0;entryX=0.5;entryY=-0.019;entryPerimeter=0;" edge="1" parent="1" source="OCLTKY3yRRcDZKbhJLKk-19" target="OCLTKY3yRRcDZKbhJLKk-27">
            <mxGeometry width="100" height="100" relative="1" as="geometry">
              <Array as="points" />
            </mxGeometry>
          </mxCell>
        </UserObject>
        <UserObject label="" lucidchartObjectId="UihPDQWe6UYG" id="OCLTKY3yRRcDZKbhJLKk-30">
          <mxCell style="html=1;jettySize=18;whiteSpace=wrap;fontSize=11;strokeColor=#5E5E5E;rounded=1;arcSize=12;edgeStyle=orthogonalEdgeStyle;startArrow=none;;endArrow=block;endFill=1;;exitX=0.5;exitY=1.019;exitPerimeter=0;entryX=0.5;entryY=-0.019;entryPerimeter=0;" edge="1" parent="1" source="OCLTKY3yRRcDZKbhJLKk-19" target="OCLTKY3yRRcDZKbhJLKk-26">
            <mxGeometry width="100" height="100" relative="1" as="geometry">
              <Array as="points" />
            </mxGeometry>
          </mxCell>
        </UserObject>
        <UserObject label="Github (www)" lucidchartObjectId="AkhP.ZGnAwlq" id="OCLTKY3yRRcDZKbhJLKk-31">
          <mxCell style="html=1;overflow=block;whiteSpace=wrap;shape=mxgraph.basic.octagon;whiteSpace=wrap;fontSize=9;fontColor=#333333;spacing=3;strokeColor=#5e5e5e;strokeOpacity=100;rounded=1;absoluteArcSize=1;arcSize=7;strokeWidth=2;" vertex="1" zOrder="31" parent="1">
            <mxGeometry x="876" y="378" width="48" height="48" as="geometry" />
          </mxCell>
        </UserObject>
        <UserObject label="" lucidchartObjectId="JkhPzUvlts4D" id="OCLTKY3yRRcDZKbhJLKk-32">
          <mxCell style="html=1;jettySize=18;whiteSpace=wrap;fontSize=11;strokeColor=#5E5E5E;rounded=1;arcSize=12;edgeStyle=orthogonalEdgeStyle;startArrow=none;;endArrow=block;endFill=1;;exitX=0.5;exitY=1.019;exitPerimeter=0;entryX=0.5;entryY=-0.019;entryPerimeter=0;" edge="1" parent="1" source="OCLTKY3yRRcDZKbhJLKk-23" target="OCLTKY3yRRcDZKbhJLKk-31">
            <mxGeometry width="100" height="100" relative="1" as="geometry">
              <Array as="points" />
            </mxGeometry>
          </mxCell>
        </UserObject>
        <UserObject label="Preset menu" lucidchartObjectId="AlhP_aBRSSUt" id="OCLTKY3yRRcDZKbhJLKk-33">
          <mxCell style="html=1;overflow=block;whiteSpace=wrap;;whiteSpace=wrap;fontSize=13;fontColor=#333333;spacing=7;strokeColor=#5e5e5e;strokeOpacity=100;rounded=1;absoluteArcSize=1;arcSize=7;strokeWidth=2;" vertex="1" zOrder="33" parent="1">
            <mxGeometry x="246" y="307" width="96" height="72" as="geometry" />
          </mxCell>
        </UserObject>
        <UserObject label="" lucidchartObjectId="WlhP_2~bkBy9" id="OCLTKY3yRRcDZKbhJLKk-34">
          <mxCell style="html=1;jettySize=18;whiteSpace=wrap;fontSize=11;strokeColor=#5E5E5E;rounded=1;arcSize=12;edgeStyle=orthogonalEdgeStyle;startArrow=none;;endArrow=block;endFill=1;;exitX=0.5;exitY=1.019;exitPerimeter=0;entryX=0.5;entryY=-0.012;entryPerimeter=0;" edge="1" parent="1" source="OCLTKY3yRRcDZKbhJLKk-10" target="OCLTKY3yRRcDZKbhJLKk-33">
            <mxGeometry width="100" height="100" relative="1" as="geometry">
              <Array as="points" />
            </mxGeometry>
          </mxCell>
        </UserObject>
        <UserObject label="{preset project buttons}" lucidchartObjectId="omhPrLtAXoiY" id="OCLTKY3yRRcDZKbhJLKk-35">
          <mxCell style="html=1;overflow=block;whiteSpace=wrap;shape=cylinder;size=0.1;anchorPointDirection=0;boundedLbl=1;;whiteSpace=wrap;fontSize=13;fontColor=#333333;spacing=3;strokeColor=#5e5e5e;strokeOpacity=100;rounded=1;absoluteArcSize=1;arcSize=7;strokeWidth=2;" vertex="1" zOrder="35" parent="1">
            <mxGeometry x="258" y="404" width="72" height="72" as="geometry" />
          </mxCell>
        </UserObject>
        <UserObject label="" lucidchartObjectId="xmhPeMbG63Ay" id="OCLTKY3yRRcDZKbhJLKk-36">
          <mxCell style="html=1;jettySize=18;whiteSpace=wrap;fontSize=11;strokeColor=#5E5E5E;rounded=1;arcSize=12;edgeStyle=orthogonalEdgeStyle;startArrow=none;;endArrow=block;endFill=1;;exitX=0.5;exitY=1.013;exitPerimeter=0;entryX=0.5;entryY=-0.013;entryPerimeter=0;" edge="1" parent="1" source="OCLTKY3yRRcDZKbhJLKk-33" target="OCLTKY3yRRcDZKbhJLKk-35">
            <mxGeometry width="100" height="100" relative="1" as="geometry">
              <Array as="points" />
            </mxGeometry>
          </mxCell>
        </UserObject>
        <UserObject label="Build menu" lucidchartObjectId="RmhPJgn8N2LB" id="OCLTKY3yRRcDZKbhJLKk-37">
          <mxCell style="html=1;overflow=block;whiteSpace=wrap;;whiteSpace=wrap;fontSize=13;fontColor=#333333;spacing=7;strokeColor=#5e5e5e;strokeOpacity=100;rounded=1;absoluteArcSize=1;arcSize=7;strokeWidth=2;" vertex="1" zOrder="37" parent="1">
            <mxGeometry x="246" y="501" width="96" height="72" as="geometry" />
          </mxCell>
        </UserObject>
        <UserObject label="" lucidchartObjectId="1mhPPJH62EWZ" id="OCLTKY3yRRcDZKbhJLKk-38">
          <mxCell style="html=1;jettySize=18;whiteSpace=wrap;fontSize=11;strokeColor=#5E5E5E;rounded=1;arcSize=12;edgeStyle=orthogonalEdgeStyle;startArrow=none;;endArrow=block;endFill=1;;exitX=0.5;exitY=1.013;exitPerimeter=0;entryX=0.5;entryY=-0.012;entryPerimeter=0;" edge="1" parent="1" source="OCLTKY3yRRcDZKbhJLKk-35" target="OCLTKY3yRRcDZKbhJLKk-37">
            <mxGeometry width="100" height="100" relative="1" as="geometry">
              <Array as="points" />
            </mxGeometry>
          </mxCell>
        </UserObject>
        <UserObject label="" lucidchartObjectId="~mhPTrMOZ8N1" id="OCLTKY3yRRcDZKbhJLKk-39">
          <mxCell style="html=1;jettySize=18;whiteSpace=wrap;fontSize=11;strokeColor=#5E5E5E;rounded=1;arcSize=12;edgeStyle=orthogonalEdgeStyle;startArrow=none;;endArrow=block;endFill=1;;exitX=0.5;exitY=1.019;exitPerimeter=0;entryX=-0.009;entryY=0.5;entryPerimeter=0;" edge="1" parent="1" source="OCLTKY3yRRcDZKbhJLKk-9" target="OCLTKY3yRRcDZKbhJLKk-37">
            <mxGeometry width="100" height="100" relative="1" as="geometry">
              <Array as="points" />
            </mxGeometry>
          </mxCell>
        </UserObject>
        <UserObject label="File dialog" lucidchartObjectId="dnhPoVdO7e.t" id="OCLTKY3yRRcDZKbhJLKk-40">
          <mxCell style="html=1;overflow=block;whiteSpace=wrap;;whiteSpace=wrap;fontSize=13;fontColor=#333333;spacing=7;strokeColor=#5e5e5e;strokeOpacity=100;rounded=1;absoluteArcSize=1;arcSize=7;strokeWidth=2;" vertex="1" zOrder="40" parent="1">
            <mxGeometry x="366" y="307" width="96" height="72" as="geometry" />
          </mxCell>
        </UserObject>
        <UserObject label="" lucidchartObjectId="knhPQ7znFYRz" id="OCLTKY3yRRcDZKbhJLKk-41">
          <mxCell style="html=1;jettySize=18;whiteSpace=wrap;fontSize=11;strokeColor=#5E5E5E;rounded=1;arcSize=12;edgeStyle=orthogonalEdgeStyle;startArrow=none;;endArrow=block;endFill=1;;exitX=0.5;exitY=1.019;exitPerimeter=0;entryX=0.5;entryY=-0.012;entryPerimeter=0;" edge="1" parent="1" source="OCLTKY3yRRcDZKbhJLKk-11" target="OCLTKY3yRRcDZKbhJLKk-40">
            <mxGeometry width="100" height="100" relative="1" as="geometry">
              <Array as="points" />
            </mxGeometry>
          </mxCell>
        </UserObject>
        <UserObject label="" lucidchartObjectId="snhPMgXDzwHj" id="OCLTKY3yRRcDZKbhJLKk-42">
          <mxCell style="html=1;jettySize=18;whiteSpace=wrap;fontSize=11;strokeColor=#5E5E5E;rounded=1;arcSize=12;edgeStyle=orthogonalEdgeStyle;startArrow=none;;endArrow=block;endFill=1;;exitX=0.5;exitY=1.013;exitPerimeter=0;entryX=1;entryY=0.5;entryDx=0;entryDy=0;" edge="1" parent="1" source="OCLTKY3yRRcDZKbhJLKk-40" target="OCLTKY3yRRcDZKbhJLKk-37">
            <mxGeometry width="100" height="100" relative="1" as="geometry">
              <Array as="points" />
              <mxPoint x="360" y="560" as="targetPoint" />
            </mxGeometry>
          </mxCell>
        </UserObject>
        <UserObject label="" lucidchartObjectId="GnhP5yLqU589" id="OCLTKY3yRRcDZKbhJLKk-43">
          <mxCell style="html=1;jettySize=18;whiteSpace=wrap;fontSize=11;strokeColor=#5E5E5E;rounded=1;arcSize=12;edgeStyle=orthogonalEdgeStyle;startArrow=none;;endArrow=block;endFill=1;;exitX=0.5;exitY=1.013;exitPerimeter=0;entryX=1;entryY=0.5;entryDx=0;entryDy=0;" edge="1" parent="1" source="OCLTKY3yRRcDZKbhJLKk-21" target="OCLTKY3yRRcDZKbhJLKk-37">
            <mxGeometry width="100" height="100" relative="1" as="geometry">
              <Array as="points" />
              <mxPoint x="410" y="520" as="targetPoint" />
            </mxGeometry>
          </mxCell>
        </UserObject>
        <mxCell id="OCLTKY3yRRcDZKbhJLKk-111" style="edgeStyle=orthogonalEdgeStyle;rounded=1;orthogonalLoop=1;jettySize=auto;html=1;exitX=0.5;exitY=1;exitDx=0;exitDy=0;entryX=0.5;entryY=0;entryDx=0;entryDy=0;strokeColor=#5E5E5E;" edge="1" parent="1" source="OCLTKY3yRRcDZKbhJLKk-44" target="OCLTKY3yRRcDZKbhJLKk-110">
          <mxGeometry relative="1" as="geometry" />
        </mxCell>
        <UserObject label="Mainmenu" lucidchartObjectId="RohPD7tozlMG" id="OCLTKY3yRRcDZKbhJLKk-44">
          <mxCell style="html=1;overflow=block;whiteSpace=wrap;rounded=1;arcSize=50;whiteSpace=wrap;fontSize=13;fontColor=#333333;spacing=3;strokeColor=#5e5e5e;strokeOpacity=100;strokeWidth=2;" vertex="1" zOrder="44" parent="1">
            <mxGeometry y="620" width="96" height="48" as="geometry" />
          </mxCell>
        </UserObject>
        <mxCell id="OCLTKY3yRRcDZKbhJLKk-65" style="edgeStyle=orthogonalEdgeStyle;orthogonalLoop=1;jettySize=auto;html=1;exitX=0.5;exitY=1;exitDx=0;exitDy=0;entryX=0.5;entryY=0;entryDx=0;entryDy=0;strokeColor=#5E5E5E;rounded=1;" edge="1" parent="1" source="OCLTKY3yRRcDZKbhJLKk-45" target="OCLTKY3yRRcDZKbhJLKk-64">
          <mxGeometry relative="1" as="geometry" />
        </mxCell>
        <mxCell id="OCLTKY3yRRcDZKbhJLKk-101" style="edgeStyle=orthogonalEdgeStyle;rounded=1;orthogonalLoop=1;jettySize=auto;html=1;exitX=0.5;exitY=1;exitDx=0;exitDy=0;strokeColor=#5E5E5E;" edge="1" parent="1" source="OCLTKY3yRRcDZKbhJLKk-45" target="OCLTKY3yRRcDZKbhJLKk-100">
          <mxGeometry relative="1" as="geometry" />
        </mxCell>
        <UserObject label="Submenu" lucidchartObjectId="TohP.QfdolWJ" id="OCLTKY3yRRcDZKbhJLKk-45">
          <mxCell style="html=1;overflow=block;whiteSpace=wrap;rounded=1;arcSize=50;whiteSpace=wrap;fontSize=13;fontColor=#333333;spacing=3;strokeColor=#5e5e5e;strokeOpacity=100;strokeWidth=2;" vertex="1" zOrder="45" parent="1">
            <mxGeometry x="492" y="620" width="96" height="48" as="geometry" />
          </mxCell>
        </UserObject>
        <UserObject label="" lucidchartObjectId="5ohPF32U7WB1" id="OCLTKY3yRRcDZKbhJLKk-46">
          <mxCell style="html=1;jettySize=18;whiteSpace=wrap;fontSize=11;strokeColor=#5E5E5E;rounded=1;arcSize=12;edgeStyle=orthogonalEdgeStyle;startArrow=none;;endArrow=block;endFill=1;;exitX=0.5;exitY=1.013;exitPerimeter=0;entryX=0.5;entryY=-0.019;entryPerimeter=0;" edge="1" parent="1" source="OCLTKY3yRRcDZKbhJLKk-37" target="OCLTKY3yRRcDZKbhJLKk-44">
            <mxGeometry width="100" height="100" relative="1" as="geometry">
              <Array as="points" />
            </mxGeometry>
          </mxCell>
        </UserObject>
        <UserObject label="" lucidchartObjectId="7ohPg73Ez6Yc" id="OCLTKY3yRRcDZKbhJLKk-47">
          <mxCell style="html=1;jettySize=18;whiteSpace=wrap;fontSize=11;strokeColor=#5E5E5E;rounded=1;arcSize=12;edgeStyle=orthogonalEdgeStyle;startArrow=none;;endArrow=block;endFill=1;;exitX=0.5;exitY=1.013;exitPerimeter=0;entryX=0.5;entryY=-0.019;entryPerimeter=0;" edge="1" parent="1" source="OCLTKY3yRRcDZKbhJLKk-37" target="OCLTKY3yRRcDZKbhJLKk-45">
            <mxGeometry width="100" height="100" relative="1" as="geometry">
              <Array as="points" />
            </mxGeometry>
          </mxCell>
        </UserObject>
        <mxCell id="OCLTKY3yRRcDZKbhJLKk-105" style="edgeStyle=orthogonalEdgeStyle;rounded=1;orthogonalLoop=1;jettySize=auto;html=1;exitX=0.5;exitY=1;exitDx=0;exitDy=0;entryX=0.5;entryY=0;entryDx=0;entryDy=0;strokeColor=#5E5E5E;" edge="1" parent="1" source="OCLTKY3yRRcDZKbhJLKk-48" target="OCLTKY3yRRcDZKbhJLKk-152">
          <mxGeometry relative="1" as="geometry">
            <mxPoint x="-122" y="786" as="targetPoint" />
          </mxGeometry>
        </mxCell>
        <UserObject label="Info button" lucidchartObjectId="BphP4nkPBx0X" id="OCLTKY3yRRcDZKbhJLKk-48">
          <mxCell style="html=1;overflow=block;whiteSpace=wrap;shape=hexagon;perimeter=hexagonPerimeter2;whiteSpace=wrap;fontSize=9;fontColor=#333333;spacing=3;strokeColor=#5e5e5e;strokeOpacity=100;rounded=1;absoluteArcSize=1;arcSize=7;strokeWidth=2;" vertex="1" zOrder="48" parent="1">
            <mxGeometry x="-152" y="710" width="60" height="48" as="geometry" />
          </mxCell>
        </UserObject>
        <UserObject label="" lucidchartObjectId="KphPo5LYbJ3Z" id="OCLTKY3yRRcDZKbhJLKk-49">
          <mxCell style="html=1;jettySize=18;whiteSpace=wrap;fontSize=11;strokeColor=#5E5E5E;rounded=1;arcSize=12;edgeStyle=orthogonalEdgeStyle;startArrow=none;;endArrow=block;endFill=1;;exitX=0.5;exitY=1.019;exitPerimeter=0;entryX=0.5;entryY=-0.019;entryPerimeter=0;" edge="1" parent="1" source="OCLTKY3yRRcDZKbhJLKk-44" target="OCLTKY3yRRcDZKbhJLKk-48">
            <mxGeometry width="100" height="100" relative="1" as="geometry">
              <Array as="points" />
            </mxGeometry>
          </mxCell>
        </UserObject>
        <UserObject label="Logo (title bar buttons)" lucidchartObjectId="cqhPyrRs~8HL" id="OCLTKY3yRRcDZKbhJLKk-50">
          <mxCell style="html=1;overflow=block;whiteSpace=wrap;rounded=1;arcSize=50;whiteSpace=wrap;fontSize=13;fontColor=#333333;spacing=3;strokeColor=#5E5E5E;strokeWidth=2;" vertex="1" zOrder="50" parent="1">
            <mxGeometry x="174" y="721.09" width="96" height="48" as="geometry" />
          </mxCell>
        </UserObject>
        <UserObject label="Minimise button" lucidchartObjectId="cqhPfh.SIQ9Y" id="OCLTKY3yRRcDZKbhJLKk-51">
          <mxCell style="html=1;overflow=block;whiteSpace=wrap;shape=hexagon;perimeter=hexagonPerimeter2;whiteSpace=wrap;fontSize=9;fontColor=#333333;spacing=3;strokeColor=#5e5e5e;strokeOpacity=100;rounded=1;absoluteArcSize=1;arcSize=7;strokeWidth=2;" vertex="1" zOrder="57" parent="1">
            <mxGeometry x="120" y="816.09" width="60" height="48" as="geometry" />
          </mxCell>
        </UserObject>
        <UserObject label="Zoom" lucidchartObjectId="cqhP32hmj4~M" id="OCLTKY3yRRcDZKbhJLKk-52">
          <mxCell style="html=1;overflow=block;whiteSpace=wrap;shape=hexagon;perimeter=hexagonPerimeter2;whiteSpace=wrap;fontSize=9;fontColor=#333333;spacing=3;strokeColor=#5e5e5e;strokeOpacity=100;rounded=1;absoluteArcSize=1;arcSize=7;strokeWidth=2;" vertex="1" zOrder="58" parent="1">
            <mxGeometry x="192" y="816.09" width="60" height="48" as="geometry" />
          </mxCell>
        </UserObject>
        <UserObject label="Close" lucidchartObjectId="cqhPhVQuO8Ms" id="OCLTKY3yRRcDZKbhJLKk-53">
          <mxCell style="html=1;overflow=block;whiteSpace=wrap;shape=hexagon;perimeter=hexagonPerimeter2;whiteSpace=wrap;fontSize=9;fontColor=#333333;spacing=3;strokeColor=#5e5e5e;strokeOpacity=100;rounded=1;absoluteArcSize=1;arcSize=7;strokeWidth=2;" vertex="1" zOrder="59" parent="1">
            <mxGeometry x="264" y="816.09" width="60" height="48" as="geometry" />
          </mxCell>
        </UserObject>
        <UserObject label="" lucidchartObjectId="cqhPuNUd_hpZ" id="OCLTKY3yRRcDZKbhJLKk-54">
          <mxCell style="html=1;jettySize=18;whiteSpace=wrap;fontSize=11;strokeColor=#5E5E5E;rounded=1;arcSize=12;edgeStyle=orthogonalEdgeStyle;startArrow=none;;endArrow=block;endFill=1;;exitX=0.5;exitY=1.019;exitPerimeter=0;entryX=0.532;entryY=-0.019;entryPerimeter=0;" edge="1" parent="1" source="OCLTKY3yRRcDZKbhJLKk-50" target="OCLTKY3yRRcDZKbhJLKk-51">
            <mxGeometry width="100" height="100" relative="1" as="geometry">
              <Array as="points" />
            </mxGeometry>
          </mxCell>
        </UserObject>
        <UserObject label="" lucidchartObjectId="cqhP6vuBOqiX" id="OCLTKY3yRRcDZKbhJLKk-55">
          <mxCell style="html=1;jettySize=18;whiteSpace=wrap;fontSize=11;strokeColor=#5E5E5E;rounded=1;arcSize=12;edgeStyle=orthogonalEdgeStyle;startArrow=none;;endArrow=block;endFill=1;;exitX=0.5;exitY=1.019;exitPerimeter=0;entryX=0.5;entryY=-0.019;entryPerimeter=0;" edge="1" parent="1" source="OCLTKY3yRRcDZKbhJLKk-50" target="OCLTKY3yRRcDZKbhJLKk-53">
            <mxGeometry width="100" height="100" relative="1" as="geometry">
              <Array as="points" />
            </mxGeometry>
          </mxCell>
        </UserObject>
        <UserObject label="" lucidchartObjectId="cqhP4pn__QzX" id="OCLTKY3yRRcDZKbhJLKk-56">
          <mxCell style="html=1;jettySize=18;whiteSpace=wrap;fontSize=11;strokeColor=#5E5E5E;rounded=1;arcSize=12;edgeStyle=orthogonalEdgeStyle;startArrow=none;;endArrow=block;endFill=1;;exitX=0.5;exitY=1.019;exitPerimeter=0;entryX=0.5;entryY=-0.019;entryPerimeter=0;" edge="1" parent="1" source="OCLTKY3yRRcDZKbhJLKk-50" target="OCLTKY3yRRcDZKbhJLKk-52">
            <mxGeometry width="100" height="100" relative="1" as="geometry">
              <Array as="points" />
            </mxGeometry>
          </mxCell>
        </UserObject>
        <UserObject label="" lucidchartObjectId="nqhPas4iSyuT" id="OCLTKY3yRRcDZKbhJLKk-57">
          <mxCell style="html=1;jettySize=18;whiteSpace=wrap;fontSize=11;strokeColor=#5E5E5E;rounded=1;arcSize=12;edgeStyle=orthogonalEdgeStyle;startArrow=none;;endArrow=block;endFill=1;;exitX=0.5;exitY=1;entryX=0.5;entryY=-0.019;entryPerimeter=0;exitDx=0;exitDy=0;" edge="1" parent="1" source="OCLTKY3yRRcDZKbhJLKk-45" target="OCLTKY3yRRcDZKbhJLKk-50">
            <mxGeometry width="100" height="100" relative="1" as="geometry">
              <Array as="points">
                <mxPoint x="540" y="690" />
                <mxPoint x="222" y="690" />
              </Array>
              <mxPoint x="480" y="680.0020000000001" as="sourcePoint" />
            </mxGeometry>
          </mxCell>
        </UserObject>
        <UserObject label="Controls" lucidchartObjectId="RqhPsWK_.hEE" id="OCLTKY3yRRcDZKbhJLKk-58">
          <mxCell style="html=1;overflow=block;whiteSpace=wrap;rounded=1;arcSize=50;whiteSpace=wrap;fontSize=13;fontColor=#333333;spacing=3;strokeColor=#5E5E5E;strokeWidth=2;" vertex="1" zOrder="64" parent="1">
            <mxGeometry x="360" y="721.09" width="96" height="48" as="geometry" />
          </mxCell>
        </UserObject>
        <UserObject label="" lucidchartObjectId="XqhPXnnycxfH" id="OCLTKY3yRRcDZKbhJLKk-59">
          <mxCell style="html=1;jettySize=18;whiteSpace=wrap;fontSize=11;strokeColor=#5E5E5E;rounded=1;arcSize=12;edgeStyle=orthogonalEdgeStyle;startArrow=none;;endArrow=block;endFill=1;;exitX=0.5;exitY=1;entryX=0.5;entryY=-0.019;entryPerimeter=0;exitDx=0;exitDy=0;" edge="1" parent="1" source="OCLTKY3yRRcDZKbhJLKk-45" target="OCLTKY3yRRcDZKbhJLKk-58">
            <mxGeometry width="100" height="100" relative="1" as="geometry">
              <Array as="points">
                <mxPoint x="540" y="690" />
                <mxPoint x="408" y="690" />
              </Array>
              <mxPoint x="480" y="680.0020000000001" as="sourcePoint" />
            </mxGeometry>
          </mxCell>
        </UserObject>
        <mxCell id="OCLTKY3yRRcDZKbhJLKk-149" style="edgeStyle=orthogonalEdgeStyle;rounded=1;orthogonalLoop=1;jettySize=auto;html=1;exitX=0.5;exitY=1;exitDx=0;exitDy=0;strokeColor=#5E5E5E;entryX=0;entryY=0.5;entryDx=0;entryDy=0;" edge="1" parent="1" source="OCLTKY3yRRcDZKbhJLKk-60" target="OCLTKY3yRRcDZKbhJLKk-4">
          <mxGeometry relative="1" as="geometry">
            <mxPoint x="100" y="50" as="targetPoint" />
            <Array as="points">
              <mxPoint x="372" y="890" />
              <mxPoint x="-200" y="890" />
              <mxPoint x="-200" y="56" />
            </Array>
          </mxGeometry>
        </mxCell>
        <UserObject label="Home button" lucidchartObjectId="_qhPG2J7rBIf" id="OCLTKY3yRRcDZKbhJLKk-60">
          <mxCell style="html=1;overflow=block;whiteSpace=wrap;shape=hexagon;perimeter=hexagonPerimeter2;whiteSpace=wrap;fontSize=9;fontColor=#333333;spacing=3;strokeColor=#5e5e5e;strokeOpacity=100;rounded=1;absoluteArcSize=1;arcSize=7;strokeWidth=2;" vertex="1" zOrder="66" parent="1">
            <mxGeometry x="342" y="816.09" width="60" height="48" as="geometry" />
          </mxCell>
        </UserObject>
        <UserObject label="Save button" lucidchartObjectId="_qhP15vXM2qO" id="OCLTKY3yRRcDZKbhJLKk-61">
          <mxCell style="html=1;overflow=block;whiteSpace=wrap;shape=hexagon;perimeter=hexagonPerimeter2;whiteSpace=wrap;fontSize=9;fontColor=#333333;spacing=3;strokeColor=#5e5e5e;strokeOpacity=100;rounded=1;absoluteArcSize=1;arcSize=7;strokeWidth=2;" vertex="1" zOrder="67" parent="1">
            <mxGeometry x="420" y="816.09" width="60" height="48" as="geometry" />
          </mxCell>
        </UserObject>
        <UserObject label="" lucidchartObjectId="mrhP.IdMyfg7" id="OCLTKY3yRRcDZKbhJLKk-62">
          <mxCell style="html=1;jettySize=18;whiteSpace=wrap;fontSize=11;strokeColor=#5E5E5E;rounded=1;arcSize=12;edgeStyle=orthogonalEdgeStyle;startArrow=none;;endArrow=block;endFill=1;;exitX=0.5;exitY=1.019;exitPerimeter=0;entryX=0.5;entryY=-0.019;entryPerimeter=0;" edge="1" parent="1" source="OCLTKY3yRRcDZKbhJLKk-58" target="OCLTKY3yRRcDZKbhJLKk-60">
            <mxGeometry width="100" height="100" relative="1" as="geometry">
              <Array as="points" />
            </mxGeometry>
          </mxCell>
        </UserObject>
        <UserObject label="" lucidchartObjectId="prhP6jO7O9Sn" id="OCLTKY3yRRcDZKbhJLKk-63">
          <mxCell style="html=1;jettySize=18;whiteSpace=wrap;fontSize=11;strokeColor=#5E5E5E;rounded=1;arcSize=12;edgeStyle=orthogonalEdgeStyle;startArrow=none;;endArrow=block;endFill=1;;exitX=0.5;exitY=1.019;exitPerimeter=0;entryX=0.5;entryY=-0.019;entryPerimeter=0;" edge="1" parent="1" source="OCLTKY3yRRcDZKbhJLKk-58" target="OCLTKY3yRRcDZKbhJLKk-61">
            <mxGeometry width="100" height="100" relative="1" as="geometry">
              <Array as="points" />
            </mxGeometry>
          </mxCell>
        </UserObject>
        <mxCell id="OCLTKY3yRRcDZKbhJLKk-78" style="edgeStyle=orthogonalEdgeStyle;rounded=1;orthogonalLoop=1;jettySize=auto;html=1;exitX=0.5;exitY=1;exitDx=0;exitDy=0;entryX=0.5;entryY=0;entryDx=0;entryDy=0;strokeColor=#5E5E5E;" edge="1" parent="1" source="OCLTKY3yRRcDZKbhJLKk-64" target="OCLTKY3yRRcDZKbhJLKk-67">
          <mxGeometry relative="1" as="geometry" />
        </mxCell>
        <mxCell id="OCLTKY3yRRcDZKbhJLKk-79" style="edgeStyle=orthogonalEdgeStyle;rounded=1;orthogonalLoop=1;jettySize=auto;html=1;exitX=0.5;exitY=1;exitDx=0;exitDy=0;entryX=0.5;entryY=0;entryDx=0;entryDy=0;strokeColor=#5E5E5E;" edge="1" parent="1" source="OCLTKY3yRRcDZKbhJLKk-64" target="OCLTKY3yRRcDZKbhJLKk-68">
          <mxGeometry relative="1" as="geometry" />
        </mxCell>
        <mxCell id="OCLTKY3yRRcDZKbhJLKk-80" style="edgeStyle=orthogonalEdgeStyle;rounded=1;orthogonalLoop=1;jettySize=auto;html=1;exitX=0.5;exitY=1;exitDx=0;exitDy=0;entryX=0.5;entryY=0;entryDx=0;entryDy=0;strokeColor=#5E5E5E;" edge="1" parent="1" source="OCLTKY3yRRcDZKbhJLKk-64" target="OCLTKY3yRRcDZKbhJLKk-69">
          <mxGeometry relative="1" as="geometry" />
        </mxCell>
        <mxCell id="OCLTKY3yRRcDZKbhJLKk-81" style="edgeStyle=orthogonalEdgeStyle;rounded=1;orthogonalLoop=1;jettySize=auto;html=1;exitX=0.5;exitY=1;exitDx=0;exitDy=0;entryX=0.5;entryY=0;entryDx=0;entryDy=0;strokeColor=#5E5E5E;" edge="1" parent="1" source="OCLTKY3yRRcDZKbhJLKk-64" target="OCLTKY3yRRcDZKbhJLKk-70">
          <mxGeometry relative="1" as="geometry" />
        </mxCell>
        <UserObject label="Elements" lucidchartObjectId="RqhPsWK_.hEE" id="OCLTKY3yRRcDZKbhJLKk-64">
          <mxCell style="html=1;overflow=block;whiteSpace=wrap;rounded=1;arcSize=50;whiteSpace=wrap;fontSize=13;fontColor=#333333;spacing=3;strokeColor=#5E5E5E;strokeWidth=2;" vertex="1" zOrder="64" parent="1">
            <mxGeometry x="690" y="710" width="96" height="48" as="geometry" />
          </mxCell>
        </UserObject>
        <mxCell id="OCLTKY3yRRcDZKbhJLKk-151" style="edgeStyle=orthogonalEdgeStyle;rounded=1;orthogonalLoop=1;jettySize=auto;html=1;exitX=0.5;exitY=1;exitDx=0;exitDy=0;entryX=0.5;entryY=0;entryDx=0;entryDy=0;strokeColor=#5E5E5E;" edge="1" parent="1" source="OCLTKY3yRRcDZKbhJLKk-66" target="OCLTKY3yRRcDZKbhJLKk-150">
          <mxGeometry relative="1" as="geometry" />
        </mxCell>
        <UserObject label="Save button" lucidchartObjectId="_qhP15vXM2qO" id="OCLTKY3yRRcDZKbhJLKk-66">
          <mxCell style="html=1;overflow=block;whiteSpace=wrap;shape=hexagon;perimeter=hexagonPerimeter2;whiteSpace=wrap;fontSize=9;fontColor=#333333;spacing=3;strokeColor=#5e5e5e;strokeOpacity=100;rounded=1;absoluteArcSize=1;arcSize=7;strokeWidth=2;" vertex="1" zOrder="67" parent="1">
            <mxGeometry x="420" y="816.09" width="60" height="48" as="geometry" />
          </mxCell>
        </UserObject>
        <mxCell id="OCLTKY3yRRcDZKbhJLKk-87" style="edgeStyle=orthogonalEdgeStyle;rounded=1;orthogonalLoop=1;jettySize=auto;html=1;exitX=0.5;exitY=1;exitDx=0;exitDy=0;entryX=0.5;entryY=0;entryDx=0;entryDy=0;strokeColor=#5E5E5E;" edge="1" parent="1" source="OCLTKY3yRRcDZKbhJLKk-67" target="OCLTKY3yRRcDZKbhJLKk-83">
          <mxGeometry relative="1" as="geometry" />
        </mxCell>
        <UserObject label="&lt;div&gt;Road&lt;/div&gt;&lt;div&gt;button&lt;br&gt;&lt;/div&gt;" lucidchartObjectId="cqhPfh.SIQ9Y" id="OCLTKY3yRRcDZKbhJLKk-67">
          <mxCell style="html=1;overflow=block;whiteSpace=wrap;shape=hexagon;perimeter=hexagonPerimeter2;whiteSpace=wrap;fontSize=9;fontColor=#333333;spacing=3;strokeColor=#5e5e5e;strokeOpacity=100;rounded=1;absoluteArcSize=1;arcSize=7;strokeWidth=2;" vertex="1" zOrder="57" parent="1">
            <mxGeometry x="600" y="805" width="60" height="48" as="geometry" />
          </mxCell>
        </UserObject>
        <mxCell id="OCLTKY3yRRcDZKbhJLKk-88" style="edgeStyle=orthogonalEdgeStyle;rounded=1;orthogonalLoop=1;jettySize=auto;html=1;exitX=0.5;exitY=1;exitDx=0;exitDy=0;strokeColor=#5E5E5E;" edge="1" parent="1" source="OCLTKY3yRRcDZKbhJLKk-68" target="OCLTKY3yRRcDZKbhJLKk-85">
          <mxGeometry relative="1" as="geometry" />
        </mxCell>
        <UserObject label="&lt;div&gt;Buildings&lt;/div&gt;&lt;div&gt;button&lt;/div&gt;" lucidchartObjectId="cqhP32hmj4~M" id="OCLTKY3yRRcDZKbhJLKk-68">
          <mxCell style="html=1;overflow=block;whiteSpace=wrap;shape=hexagon;perimeter=hexagonPerimeter2;whiteSpace=wrap;fontSize=9;fontColor=#333333;spacing=3;strokeColor=#5e5e5e;strokeOpacity=100;rounded=1;absoluteArcSize=1;arcSize=7;strokeWidth=2;" vertex="1" zOrder="58" parent="1">
            <mxGeometry x="672" y="805" width="60" height="48" as="geometry" />
          </mxCell>
        </UserObject>
        <mxCell id="OCLTKY3yRRcDZKbhJLKk-89" style="edgeStyle=orthogonalEdgeStyle;rounded=1;orthogonalLoop=1;jettySize=auto;html=1;exitX=0.5;exitY=1;exitDx=0;exitDy=0;entryX=0.5;entryY=0;entryDx=0;entryDy=0;strokeColor=#5E5E5E;" edge="1" parent="1" source="OCLTKY3yRRcDZKbhJLKk-69" target="OCLTKY3yRRcDZKbhJLKk-84">
          <mxGeometry relative="1" as="geometry" />
        </mxCell>
        <UserObject label="&lt;div&gt;Signs&lt;/div&gt;&lt;div&gt;button&lt;/div&gt;" lucidchartObjectId="cqhPhVQuO8Ms" id="OCLTKY3yRRcDZKbhJLKk-69">
          <mxCell style="html=1;overflow=block;whiteSpace=wrap;shape=hexagon;perimeter=hexagonPerimeter2;whiteSpace=wrap;fontSize=9;fontColor=#333333;spacing=3;strokeColor=#5e5e5e;strokeOpacity=100;rounded=1;absoluteArcSize=1;arcSize=7;strokeWidth=2;" vertex="1" zOrder="59" parent="1">
            <mxGeometry x="744" y="805" width="60" height="48" as="geometry" />
          </mxCell>
        </UserObject>
        <mxCell id="OCLTKY3yRRcDZKbhJLKk-90" style="edgeStyle=orthogonalEdgeStyle;rounded=1;orthogonalLoop=1;jettySize=auto;html=1;exitX=0.5;exitY=1;exitDx=0;exitDy=0;entryX=0.5;entryY=0;entryDx=0;entryDy=0;strokeColor=#5E5E5E;" edge="1" parent="1" source="OCLTKY3yRRcDZKbhJLKk-70" target="OCLTKY3yRRcDZKbhJLKk-86">
          <mxGeometry relative="1" as="geometry" />
        </mxCell>
        <UserObject label="&lt;div&gt;Traffic light&lt;/div&gt;&lt;div&gt;button&lt;/div&gt;" lucidchartObjectId="_qhPG2J7rBIf" id="OCLTKY3yRRcDZKbhJLKk-70">
          <mxCell style="html=1;overflow=block;whiteSpace=wrap;shape=hexagon;perimeter=hexagonPerimeter2;whiteSpace=wrap;fontSize=9;fontColor=#333333;spacing=3;strokeColor=#5e5e5e;strokeOpacity=100;rounded=1;absoluteArcSize=1;arcSize=7;strokeWidth=2;" vertex="1" zOrder="66" parent="1">
            <mxGeometry x="822" y="805" width="60" height="48" as="geometry" />
          </mxCell>
        </UserObject>
        <mxCell id="OCLTKY3yRRcDZKbhJLKk-92" style="edgeStyle=orthogonalEdgeStyle;rounded=1;orthogonalLoop=1;jettySize=auto;html=1;exitX=0.5;exitY=1;exitDx=0;exitDy=0;strokeColor=#5E5E5E;" edge="1" parent="1" source="OCLTKY3yRRcDZKbhJLKk-83">
          <mxGeometry relative="1" as="geometry">
            <mxPoint x="552" y="990" as="targetPoint" />
          </mxGeometry>
        </mxCell>
        <UserObject label="Road submenu" lucidchartObjectId="RqhPsWK_.hEE" id="OCLTKY3yRRcDZKbhJLKk-83">
          <mxCell style="html=1;overflow=block;whiteSpace=wrap;rounded=1;arcSize=50;whiteSpace=wrap;fontSize=13;fontColor=#333333;spacing=3;strokeColor=#5E5E5E;strokeWidth=2;" vertex="1" zOrder="64" parent="1">
            <mxGeometry x="504" y="920" width="96" height="48" as="geometry" />
          </mxCell>
        </UserObject>
        <mxCell id="OCLTKY3yRRcDZKbhJLKk-98" style="edgeStyle=orthogonalEdgeStyle;rounded=1;orthogonalLoop=1;jettySize=auto;html=1;exitX=0.5;exitY=1;exitDx=0;exitDy=0;entryX=0.5;entryY=0;entryDx=0;entryDy=0;strokeColor=#5E5E5E;" edge="1" parent="1" source="OCLTKY3yRRcDZKbhJLKk-84" target="OCLTKY3yRRcDZKbhJLKk-96">
          <mxGeometry relative="1" as="geometry" />
        </mxCell>
        <UserObject label="Signs submenu" lucidchartObjectId="RqhPsWK_.hEE" id="OCLTKY3yRRcDZKbhJLKk-84">
          <mxCell style="html=1;overflow=block;whiteSpace=wrap;rounded=1;arcSize=50;whiteSpace=wrap;fontSize=13;fontColor=#333333;spacing=3;strokeColor=#5E5E5E;strokeWidth=2;" vertex="1" zOrder="64" parent="1">
            <mxGeometry x="750" y="920" width="96" height="48" as="geometry" />
          </mxCell>
        </UserObject>
        <mxCell id="OCLTKY3yRRcDZKbhJLKk-95" style="edgeStyle=orthogonalEdgeStyle;rounded=1;orthogonalLoop=1;jettySize=auto;html=1;exitX=0.5;exitY=1;exitDx=0;exitDy=0;strokeColor=#5E5E5E;" edge="1" parent="1" source="OCLTKY3yRRcDZKbhJLKk-85" target="OCLTKY3yRRcDZKbhJLKk-94">
          <mxGeometry relative="1" as="geometry" />
        </mxCell>
        <UserObject label="Building submenu" lucidchartObjectId="RqhPsWK_.hEE" id="OCLTKY3yRRcDZKbhJLKk-85">
          <mxCell style="html=1;overflow=block;whiteSpace=wrap;rounded=1;arcSize=50;whiteSpace=wrap;fontSize=13;fontColor=#333333;spacing=3;strokeColor=#5E5E5E;strokeWidth=2;" vertex="1" zOrder="64" parent="1">
            <mxGeometry x="630" y="920" width="96" height="48" as="geometry" />
          </mxCell>
        </UserObject>
        <mxCell id="OCLTKY3yRRcDZKbhJLKk-99" style="edgeStyle=orthogonalEdgeStyle;rounded=1;orthogonalLoop=1;jettySize=auto;html=1;exitX=0.5;exitY=1;exitDx=0;exitDy=0;entryX=0.5;entryY=0;entryDx=0;entryDy=0;strokeColor=#5E5E5E;" edge="1" parent="1" source="OCLTKY3yRRcDZKbhJLKk-86" target="OCLTKY3yRRcDZKbhJLKk-97">
          <mxGeometry relative="1" as="geometry" />
        </mxCell>
        <UserObject label="&lt;div&gt;Traffic light submenu&lt;/div&gt;" lucidchartObjectId="RqhPsWK_.hEE" id="OCLTKY3yRRcDZKbhJLKk-86">
          <mxCell style="html=1;overflow=block;whiteSpace=wrap;rounded=1;arcSize=50;whiteSpace=wrap;fontSize=13;fontColor=#333333;spacing=3;strokeColor=#5E5E5E;strokeWidth=2;" vertex="1" zOrder="64" parent="1">
            <mxGeometry x="876" y="920" width="96" height="48" as="geometry" />
          </mxCell>
        </UserObject>
        <mxCell id="OCLTKY3yRRcDZKbhJLKk-113" style="edgeStyle=orthogonalEdgeStyle;rounded=1;orthogonalLoop=1;jettySize=auto;html=1;exitX=0.5;exitY=1;exitDx=0;exitDy=0;entryX=0.5;entryY=0;entryDx=0;entryDy=0;strokeColor=#5E5E5E;" edge="1" parent="1" source="OCLTKY3yRRcDZKbhJLKk-93" target="OCLTKY3yRRcDZKbhJLKk-112">
          <mxGeometry relative="1" as="geometry" />
        </mxCell>
        <UserObject label="&lt;div&gt;{Road&lt;/div&gt;&lt;div&gt;types&lt;br&gt;&lt;/div&gt;&lt;div&gt;buttons}&lt;/div&gt;" lucidchartObjectId="_fhP1PIFupey" id="OCLTKY3yRRcDZKbhJLKk-93">
          <mxCell style="html=1;overflow=block;whiteSpace=wrap;shape=cylinder;size=0.1;anchorPointDirection=0;boundedLbl=1;;whiteSpace=wrap;fontSize=13;fontColor=#333333;spacing=3;strokeColor=#5e5e5e;strokeOpacity=100;rounded=1;absoluteArcSize=1;arcSize=7;strokeWidth=2;" vertex="1" zOrder="20" parent="1">
            <mxGeometry x="516" y="990" width="72" height="72" as="geometry" />
          </mxCell>
        </UserObject>
        <UserObject label="&lt;div&gt;{Building&lt;/div&gt;&lt;div&gt;types&lt;br&gt;&lt;/div&gt;&lt;div&gt;buttons}&lt;/div&gt;" lucidchartObjectId="_fhP1PIFupey" id="OCLTKY3yRRcDZKbhJLKk-94">
          <mxCell style="html=1;overflow=block;whiteSpace=wrap;shape=cylinder;size=0.1;anchorPointDirection=0;boundedLbl=1;;whiteSpace=wrap;fontSize=13;fontColor=#333333;spacing=3;strokeColor=#5e5e5e;strokeOpacity=100;rounded=1;absoluteArcSize=1;arcSize=7;strokeWidth=2;" vertex="1" zOrder="20" parent="1">
            <mxGeometry x="642" y="990" width="72" height="72" as="geometry" />
          </mxCell>
        </UserObject>
        <mxCell id="OCLTKY3yRRcDZKbhJLKk-115" style="edgeStyle=orthogonalEdgeStyle;rounded=1;orthogonalLoop=1;jettySize=auto;html=1;exitX=0.5;exitY=1;exitDx=0;exitDy=0;entryX=0.5;entryY=0;entryDx=0;entryDy=0;strokeColor=#5E5E5E;" edge="1" parent="1" source="OCLTKY3yRRcDZKbhJLKk-96" target="OCLTKY3yRRcDZKbhJLKk-114">
          <mxGeometry relative="1" as="geometry" />
        </mxCell>
        <UserObject label="&lt;div&gt;{Sign &lt;br&gt;&lt;/div&gt;&lt;div&gt;types&lt;br&gt;&lt;/div&gt;&lt;div&gt;buttons}&lt;/div&gt;" lucidchartObjectId="_fhP1PIFupey" id="OCLTKY3yRRcDZKbhJLKk-96">
          <mxCell style="html=1;overflow=block;whiteSpace=wrap;shape=cylinder;size=0.1;anchorPointDirection=0;boundedLbl=1;;whiteSpace=wrap;fontSize=13;fontColor=#333333;spacing=3;strokeColor=#5e5e5e;strokeOpacity=100;rounded=1;absoluteArcSize=1;arcSize=7;strokeWidth=2;" vertex="1" zOrder="20" parent="1">
            <mxGeometry x="762" y="990" width="72" height="72" as="geometry" />
          </mxCell>
        </UserObject>
        <UserObject label="&lt;div&gt;{Traffic&lt;/div&gt;&lt;div&gt;light&lt;/div&gt;&lt;div&gt;setting&lt;br&gt;&lt;/div&gt;&lt;div&gt;buttons}&lt;/div&gt;" lucidchartObjectId="_fhP1PIFupey" id="OCLTKY3yRRcDZKbhJLKk-97">
          <mxCell style="html=1;overflow=block;whiteSpace=wrap;shape=cylinder;size=0.1;anchorPointDirection=0;boundedLbl=1;;whiteSpace=wrap;fontSize=13;fontColor=#333333;spacing=3;strokeColor=#5e5e5e;strokeOpacity=100;rounded=1;absoluteArcSize=1;arcSize=7;strokeWidth=2;" vertex="1" zOrder="20" parent="1">
            <mxGeometry x="888" y="990" width="72" height="90" as="geometry" />
          </mxCell>
        </UserObject>
        <mxCell id="OCLTKY3yRRcDZKbhJLKk-103" style="edgeStyle=orthogonalEdgeStyle;rounded=1;orthogonalLoop=1;jettySize=auto;html=1;exitX=0.5;exitY=1;exitDx=0;exitDy=0;strokeColor=#5E5E5E;" edge="1" parent="1" source="OCLTKY3yRRcDZKbhJLKk-100" target="OCLTKY3yRRcDZKbhJLKk-102">
          <mxGeometry relative="1" as="geometry" />
        </mxCell>
        <UserObject label="&lt;div&gt;Simulation start&lt;/div&gt;" lucidchartObjectId="RqhPsWK_.hEE" id="OCLTKY3yRRcDZKbhJLKk-100">
          <mxCell style="html=1;overflow=block;whiteSpace=wrap;rounded=1;arcSize=50;whiteSpace=wrap;fontSize=13;fontColor=#333333;spacing=3;strokeColor=#5E5E5E;strokeWidth=2;" vertex="1" zOrder="64" parent="1">
            <mxGeometry x="1080" y="710" width="96" height="48" as="geometry" />
          </mxCell>
        </UserObject>
        <mxCell id="OCLTKY3yRRcDZKbhJLKk-108" style="edgeStyle=orthogonalEdgeStyle;rounded=1;orthogonalLoop=1;jettySize=auto;html=1;exitX=0.5;exitY=1;exitDx=0;exitDy=0;entryX=0.5;entryY=0;entryDx=0;entryDy=0;strokeColor=#5E5E5E;" edge="1" parent="1" source="OCLTKY3yRRcDZKbhJLKk-102" target="OCLTKY3yRRcDZKbhJLKk-107">
          <mxGeometry relative="1" as="geometry" />
        </mxCell>
        <UserObject label="Start sim. button" lucidchartObjectId="_qhPG2J7rBIf" id="OCLTKY3yRRcDZKbhJLKk-102">
          <mxCell style="html=1;overflow=block;whiteSpace=wrap;shape=hexagon;perimeter=hexagonPerimeter2;whiteSpace=wrap;fontSize=9;fontColor=#333333;spacing=3;strokeColor=#5e5e5e;strokeOpacity=100;rounded=1;absoluteArcSize=1;arcSize=7;strokeWidth=2;" vertex="1" zOrder="66" parent="1">
            <mxGeometry x="1098" y="805" width="60" height="48" as="geometry" />
          </mxCell>
        </UserObject>
        <mxCell id="OCLTKY3yRRcDZKbhJLKk-118" style="edgeStyle=orthogonalEdgeStyle;rounded=1;orthogonalLoop=1;jettySize=auto;html=1;exitX=0.5;exitY=1;exitDx=0;exitDy=0;entryX=0.5;entryY=0;entryDx=0;entryDy=0;strokeColor=#5E5E5E;" edge="1" parent="1" source="OCLTKY3yRRcDZKbhJLKk-107" target="OCLTKY3yRRcDZKbhJLKk-116">
          <mxGeometry relative="1" as="geometry" />
        </mxCell>
        <mxCell id="OCLTKY3yRRcDZKbhJLKk-119" style="edgeStyle=orthogonalEdgeStyle;rounded=1;orthogonalLoop=1;jettySize=auto;html=1;exitX=0.5;exitY=1;exitDx=0;exitDy=0;strokeColor=#5E5E5E;" edge="1" parent="1" source="OCLTKY3yRRcDZKbhJLKk-107" target="OCLTKY3yRRcDZKbhJLKk-117">
          <mxGeometry relative="1" as="geometry" />
        </mxCell>
        <UserObject label="Simulation menu" lucidchartObjectId="RmhPJgn8N2LB" id="OCLTKY3yRRcDZKbhJLKk-107">
          <mxCell style="html=1;overflow=block;whiteSpace=wrap;;whiteSpace=wrap;fontSize=13;fontColor=#333333;spacing=7;strokeColor=#5e5e5e;strokeOpacity=100;rounded=1;absoluteArcSize=1;arcSize=7;strokeWidth=2;" vertex="1" zOrder="37" parent="1">
            <mxGeometry x="1370" y="908" width="96" height="72" as="geometry" />
          </mxCell>
        </UserObject>
        <mxCell id="OCLTKY3yRRcDZKbhJLKk-110" value="User interaction by mouseclicking (scaling, moving ect.)" style="shape=hexagon;perimeter=hexagonPerimeter2;whiteSpace=wrap;html=1;fixedSize=1;" vertex="1" parent="1">
          <mxGeometry x="-26" y="720" width="148" height="80" as="geometry" />
        </mxCell>
        <UserObject label="if nessesary: submenu for road type" lucidchartObjectId="RqhPsWK_.hEE" id="OCLTKY3yRRcDZKbhJLKk-112">
          <mxCell style="html=1;overflow=block;whiteSpace=wrap;rounded=1;arcSize=50;whiteSpace=wrap;fontSize=13;fontColor=#333333;spacing=3;strokeColor=#5E5E5E;strokeWidth=2;" vertex="1" zOrder="64" parent="1">
            <mxGeometry x="480" y="1090" width="140" height="48" as="geometry" />
          </mxCell>
        </UserObject>
        <UserObject label="&lt;div&gt;if nessesary: submenu for signs&lt;/div&gt;" lucidchartObjectId="RqhPsWK_.hEE" id="OCLTKY3yRRcDZKbhJLKk-114">
          <mxCell style="html=1;overflow=block;whiteSpace=wrap;rounded=1;arcSize=50;whiteSpace=wrap;fontSize=13;fontColor=#333333;spacing=3;strokeColor=#5E5E5E;strokeWidth=2;" vertex="1" zOrder="64" parent="1">
            <mxGeometry x="728" y="1090" width="140" height="48" as="geometry" />
          </mxCell>
        </UserObject>
        <mxCell id="OCLTKY3yRRcDZKbhJLKk-121" style="edgeStyle=orthogonalEdgeStyle;rounded=1;orthogonalLoop=1;jettySize=auto;html=1;exitX=0.5;exitY=1;exitDx=0;exitDy=0;strokeColor=#5E5E5E;" edge="1" parent="1" source="OCLTKY3yRRcDZKbhJLKk-116" target="OCLTKY3yRRcDZKbhJLKk-120">
          <mxGeometry relative="1" as="geometry" />
        </mxCell>
        <UserObject label="Main menu" lucidchartObjectId="RqhPsWK_.hEE" id="OCLTKY3yRRcDZKbhJLKk-116">
          <mxCell style="html=1;overflow=block;whiteSpace=wrap;rounded=1;arcSize=50;whiteSpace=wrap;fontSize=13;fontColor=#333333;spacing=3;strokeColor=#5E5E5E;strokeWidth=2;" vertex="1" zOrder="64" parent="1">
            <mxGeometry x="1300" y="1032" width="96" height="48" as="geometry" />
          </mxCell>
        </UserObject>
        <mxCell id="OCLTKY3yRRcDZKbhJLKk-129" style="edgeStyle=orthogonalEdgeStyle;rounded=1;orthogonalLoop=1;jettySize=auto;html=1;exitX=0.5;exitY=1;exitDx=0;exitDy=0;strokeColor=#5E5E5E;" edge="1" parent="1" source="OCLTKY3yRRcDZKbhJLKk-117" target="OCLTKY3yRRcDZKbhJLKk-122">
          <mxGeometry relative="1" as="geometry" />
        </mxCell>
        <mxCell id="OCLTKY3yRRcDZKbhJLKk-131" style="edgeStyle=orthogonalEdgeStyle;rounded=1;orthogonalLoop=1;jettySize=auto;html=1;exitX=0.5;exitY=1;exitDx=0;exitDy=0;strokeColor=#5E5E5E;entryX=0.5;entryY=0;entryDx=0;entryDy=0;" edge="1" parent="1" source="OCLTKY3yRRcDZKbhJLKk-117" target="OCLTKY3yRRcDZKbhJLKk-130">
          <mxGeometry relative="1" as="geometry">
            <mxPoint x="1740" y="1120" as="targetPoint" />
          </mxGeometry>
        </mxCell>
        <mxCell id="OCLTKY3yRRcDZKbhJLKk-134" style="edgeStyle=orthogonalEdgeStyle;rounded=1;orthogonalLoop=1;jettySize=auto;html=1;exitX=0.5;exitY=1;exitDx=0;exitDy=0;strokeColor=#5E5E5E;" edge="1" parent="1" source="OCLTKY3yRRcDZKbhJLKk-117" target="OCLTKY3yRRcDZKbhJLKk-133">
          <mxGeometry relative="1" as="geometry" />
        </mxCell>
        <mxCell id="OCLTKY3yRRcDZKbhJLKk-136" style="edgeStyle=orthogonalEdgeStyle;rounded=1;orthogonalLoop=1;jettySize=auto;html=1;exitX=0.5;exitY=1;exitDx=0;exitDy=0;strokeColor=#5E5E5E;" edge="1" parent="1" source="OCLTKY3yRRcDZKbhJLKk-117" target="OCLTKY3yRRcDZKbhJLKk-135">
          <mxGeometry relative="1" as="geometry" />
        </mxCell>
        <UserObject label="Submenu" lucidchartObjectId="RqhPsWK_.hEE" id="OCLTKY3yRRcDZKbhJLKk-117">
          <mxCell style="html=1;overflow=block;whiteSpace=wrap;rounded=1;arcSize=50;whiteSpace=wrap;fontSize=13;fontColor=#333333;spacing=3;strokeColor=#5E5E5E;strokeWidth=2;" vertex="1" zOrder="64" parent="1">
            <mxGeometry x="1570" y="1032" width="96" height="48" as="geometry" />
          </mxCell>
        </UserObject>
        <mxCell id="OCLTKY3yRRcDZKbhJLKk-120" value="Live data" style="ellipse;whiteSpace=wrap;html=1;" vertex="1" parent="1">
          <mxGeometry x="1313.5" y="1100" width="69" height="40" as="geometry" />
        </mxCell>
        <UserObject label="Logo (title bar buttons)" lucidchartObjectId="cqhPyrRs~8HL" id="OCLTKY3yRRcDZKbhJLKk-122">
          <mxCell style="html=1;overflow=block;whiteSpace=wrap;rounded=1;arcSize=50;whiteSpace=wrap;fontSize=13;fontColor=#333333;spacing=3;strokeColor=#5E5E5E;strokeWidth=2;" vertex="1" zOrder="50" parent="1">
            <mxGeometry x="1440" y="1120" width="96" height="48" as="geometry" />
          </mxCell>
        </UserObject>
        <UserObject label="Minimise button" lucidchartObjectId="cqhPfh.SIQ9Y" id="OCLTKY3yRRcDZKbhJLKk-123">
          <mxCell style="html=1;overflow=block;whiteSpace=wrap;shape=hexagon;perimeter=hexagonPerimeter2;whiteSpace=wrap;fontSize=9;fontColor=#333333;spacing=3;strokeColor=#5e5e5e;strokeOpacity=100;rounded=1;absoluteArcSize=1;arcSize=7;strokeWidth=2;" vertex="1" zOrder="57" parent="1">
            <mxGeometry x="1386" y="1215" width="60" height="48" as="geometry" />
          </mxCell>
        </UserObject>
        <UserObject label="Zoom" lucidchartObjectId="cqhP32hmj4~M" id="OCLTKY3yRRcDZKbhJLKk-124">
          <mxCell style="html=1;overflow=block;whiteSpace=wrap;shape=hexagon;perimeter=hexagonPerimeter2;whiteSpace=wrap;fontSize=9;fontColor=#333333;spacing=3;strokeColor=#5e5e5e;strokeOpacity=100;rounded=1;absoluteArcSize=1;arcSize=7;strokeWidth=2;" vertex="1" zOrder="58" parent="1">
            <mxGeometry x="1458" y="1215" width="60" height="48" as="geometry" />
          </mxCell>
        </UserObject>
        <UserObject label="Close" lucidchartObjectId="cqhPhVQuO8Ms" id="OCLTKY3yRRcDZKbhJLKk-125">
          <mxCell style="html=1;overflow=block;whiteSpace=wrap;shape=hexagon;perimeter=hexagonPerimeter2;whiteSpace=wrap;fontSize=9;fontColor=#333333;spacing=3;strokeColor=#5e5e5e;strokeOpacity=100;rounded=1;absoluteArcSize=1;arcSize=7;strokeWidth=2;" vertex="1" zOrder="59" parent="1">
            <mxGeometry x="1530" y="1215" width="60" height="48" as="geometry" />
          </mxCell>
        </UserObject>
        <UserObject label="" lucidchartObjectId="cqhPuNUd_hpZ" id="OCLTKY3yRRcDZKbhJLKk-126">
          <mxCell style="html=1;jettySize=18;whiteSpace=wrap;fontSize=11;strokeColor=#5E5E5E;rounded=1;arcSize=12;edgeStyle=orthogonalEdgeStyle;startArrow=none;;endArrow=block;endFill=1;;exitX=0.5;exitY=1.019;exitPerimeter=0;entryX=0.532;entryY=-0.019;entryPerimeter=0;" edge="1" parent="1" source="OCLTKY3yRRcDZKbhJLKk-122" target="OCLTKY3yRRcDZKbhJLKk-123">
            <mxGeometry width="100" height="100" relative="1" as="geometry">
              <Array as="points" />
            </mxGeometry>
          </mxCell>
        </UserObject>
        <UserObject label="" lucidchartObjectId="cqhP6vuBOqiX" id="OCLTKY3yRRcDZKbhJLKk-127">
          <mxCell style="html=1;jettySize=18;whiteSpace=wrap;fontSize=11;strokeColor=#5E5E5E;rounded=1;arcSize=12;edgeStyle=orthogonalEdgeStyle;startArrow=none;;endArrow=block;endFill=1;;exitX=0.5;exitY=1.019;exitPerimeter=0;entryX=0.5;entryY=-0.019;entryPerimeter=0;" edge="1" parent="1" source="OCLTKY3yRRcDZKbhJLKk-122" target="OCLTKY3yRRcDZKbhJLKk-125">
            <mxGeometry width="100" height="100" relative="1" as="geometry">
              <Array as="points" />
            </mxGeometry>
          </mxCell>
        </UserObject>
        <UserObject label="" lucidchartObjectId="cqhP4pn__QzX" id="OCLTKY3yRRcDZKbhJLKk-128">
          <mxCell style="html=1;jettySize=18;whiteSpace=wrap;fontSize=11;strokeColor=#5E5E5E;rounded=1;arcSize=12;edgeStyle=orthogonalEdgeStyle;startArrow=none;;endArrow=block;endFill=1;;exitX=0.5;exitY=1.019;exitPerimeter=0;entryX=0.5;entryY=-0.019;entryPerimeter=0;" edge="1" parent="1" source="OCLTKY3yRRcDZKbhJLKk-122" target="OCLTKY3yRRcDZKbhJLKk-124">
            <mxGeometry width="100" height="100" relative="1" as="geometry">
              <Array as="points" />
            </mxGeometry>
          </mxCell>
        </UserObject>
        <mxCell id="OCLTKY3yRRcDZKbhJLKk-156" style="edgeStyle=orthogonalEdgeStyle;rounded=1;orthogonalLoop=1;jettySize=auto;html=1;exitX=0.5;exitY=1;exitDx=0;exitDy=0;entryX=0.5;entryY=0;entryDx=0;entryDy=0;strokeColor=#5E5E5E;" edge="1" parent="1" source="OCLTKY3yRRcDZKbhJLKk-130" target="OCLTKY3yRRcDZKbhJLKk-154">
          <mxGeometry relative="1" as="geometry" />
        </mxCell>
        <UserObject label="&lt;div&gt;general&lt;/div&gt;&lt;div&gt;Settings submenu&lt;/div&gt;" lucidchartObjectId="cqhPyrRs~8HL" id="OCLTKY3yRRcDZKbhJLKk-130">
          <mxCell style="html=1;overflow=block;whiteSpace=wrap;rounded=1;arcSize=50;whiteSpace=wrap;fontSize=13;fontColor=#333333;spacing=3;strokeColor=#5E5E5E;strokeWidth=2;" vertex="1" zOrder="50" parent="1">
            <mxGeometry x="1740" y="1120" width="96" height="48" as="geometry" />
          </mxCell>
        </UserObject>
        <UserObject label="&lt;div&gt;Play/stop&lt;/div&gt;&lt;div&gt; button&lt;/div&gt;" lucidchartObjectId="cqhPhVQuO8Ms" id="OCLTKY3yRRcDZKbhJLKk-132">
          <mxCell style="html=1;overflow=block;whiteSpace=wrap;shape=hexagon;perimeter=hexagonPerimeter2;whiteSpace=wrap;fontSize=9;fontColor=#333333;spacing=3;strokeColor=#5e5e5e;strokeOpacity=100;rounded=1;absoluteArcSize=1;arcSize=7;strokeWidth=2;" vertex="1" zOrder="59" parent="1">
            <mxGeometry x="2230" y="1200" width="60" height="48" as="geometry" />
          </mxCell>
        </UserObject>
        <mxCell id="OCLTKY3yRRcDZKbhJLKk-141" style="edgeStyle=orthogonalEdgeStyle;rounded=1;orthogonalLoop=1;jettySize=auto;html=1;exitX=0.5;exitY=1;exitDx=0;exitDy=0;strokeColor=#5E5E5E;" edge="1" parent="1" source="OCLTKY3yRRcDZKbhJLKk-133" target="OCLTKY3yRRcDZKbhJLKk-138">
          <mxGeometry relative="1" as="geometry" />
        </mxCell>
        <mxCell id="OCLTKY3yRRcDZKbhJLKk-142" style="edgeStyle=orthogonalEdgeStyle;rounded=1;orthogonalLoop=1;jettySize=auto;html=1;exitX=0.5;exitY=1;exitDx=0;exitDy=0;entryX=0.5;entryY=0;entryDx=0;entryDy=0;strokeColor=#5E5E5E;" edge="1" parent="1" source="OCLTKY3yRRcDZKbhJLKk-133" target="OCLTKY3yRRcDZKbhJLKk-139">
          <mxGeometry relative="1" as="geometry" />
        </mxCell>
        <mxCell id="OCLTKY3yRRcDZKbhJLKk-143" style="edgeStyle=orthogonalEdgeStyle;rounded=1;orthogonalLoop=1;jettySize=auto;html=1;exitX=0.5;exitY=1;exitDx=0;exitDy=0;entryX=0.5;entryY=0;entryDx=0;entryDy=0;strokeColor=#5E5E5E;" edge="1" parent="1" source="OCLTKY3yRRcDZKbhJLKk-133" target="OCLTKY3yRRcDZKbhJLKk-140">
          <mxGeometry relative="1" as="geometry" />
        </mxCell>
        <UserObject label="&lt;div&gt;Optional&lt;/div&gt;&lt;div&gt;Settings submenu&lt;/div&gt;" lucidchartObjectId="cqhPyrRs~8HL" id="OCLTKY3yRRcDZKbhJLKk-133">
          <mxCell style="html=1;overflow=block;whiteSpace=wrap;rounded=1;arcSize=50;whiteSpace=wrap;fontSize=13;fontColor=#333333;spacing=3;strokeColor=#5E5E5E;strokeWidth=2;" vertex="1" zOrder="50" parent="1">
            <mxGeometry x="2030" y="1120" width="96" height="48" as="geometry" />
          </mxCell>
        </UserObject>
        <mxCell id="OCLTKY3yRRcDZKbhJLKk-137" style="edgeStyle=orthogonalEdgeStyle;rounded=1;orthogonalLoop=1;jettySize=auto;html=1;exitX=0.5;exitY=1;exitDx=0;exitDy=0;strokeColor=#5E5E5E;" edge="1" parent="1" source="OCLTKY3yRRcDZKbhJLKk-135" target="OCLTKY3yRRcDZKbhJLKk-132">
          <mxGeometry relative="1" as="geometry" />
        </mxCell>
        <mxCell id="OCLTKY3yRRcDZKbhJLKk-145" style="edgeStyle=orthogonalEdgeStyle;rounded=1;orthogonalLoop=1;jettySize=auto;html=1;exitX=0.5;exitY=1;exitDx=0;exitDy=0;entryX=0.5;entryY=0;entryDx=0;entryDy=0;strokeColor=#5E5E5E;" edge="1" parent="1" source="OCLTKY3yRRcDZKbhJLKk-135" target="OCLTKY3yRRcDZKbhJLKk-144">
          <mxGeometry relative="1" as="geometry" />
        </mxCell>
        <UserObject label="Simulation state" lucidchartObjectId="cqhPyrRs~8HL" id="OCLTKY3yRRcDZKbhJLKk-135">
          <mxCell style="html=1;overflow=block;whiteSpace=wrap;rounded=1;arcSize=50;whiteSpace=wrap;fontSize=13;fontColor=#333333;spacing=3;strokeColor=#5E5E5E;strokeWidth=2;" vertex="1" zOrder="50" parent="1">
            <mxGeometry x="2250" y="1121" width="96" height="48" as="geometry" />
          </mxCell>
        </UserObject>
        <mxCell id="OCLTKY3yRRcDZKbhJLKk-159" style="edgeStyle=orthogonalEdgeStyle;rounded=1;orthogonalLoop=1;jettySize=auto;html=1;exitX=0.5;exitY=1;exitDx=0;exitDy=0;entryX=0.5;entryY=0;entryDx=0;entryDy=0;strokeColor=#5E5E5E;" edge="1" parent="1" source="OCLTKY3yRRcDZKbhJLKk-138" target="OCLTKY3yRRcDZKbhJLKk-157">
          <mxGeometry relative="1" as="geometry" />
        </mxCell>
        <UserObject label="Weater button" lucidchartObjectId="cqhPfh.SIQ9Y" id="OCLTKY3yRRcDZKbhJLKk-138">
          <mxCell style="html=1;overflow=block;whiteSpace=wrap;shape=hexagon;perimeter=hexagonPerimeter2;whiteSpace=wrap;fontSize=9;fontColor=#333333;spacing=3;strokeColor=#5e5e5e;strokeOpacity=100;rounded=1;absoluteArcSize=1;arcSize=7;strokeWidth=2;" vertex="1" zOrder="57" parent="1">
            <mxGeometry x="1970" y="1209" width="60" height="48" as="geometry" />
          </mxCell>
        </UserObject>
        <mxCell id="OCLTKY3yRRcDZKbhJLKk-167" style="edgeStyle=orthogonalEdgeStyle;rounded=1;orthogonalLoop=1;jettySize=auto;html=1;exitX=0.5;exitY=1;exitDx=0;exitDy=0;entryX=0.5;entryY=0;entryDx=0;entryDy=0;strokeColor=#5E5E5E;fontSize=8;" edge="1" parent="1" source="OCLTKY3yRRcDZKbhJLKk-139" target="OCLTKY3yRRcDZKbhJLKk-163">
          <mxGeometry relative="1" as="geometry" />
        </mxCell>
        <UserObject label="Driver settings button" lucidchartObjectId="cqhP32hmj4~M" id="OCLTKY3yRRcDZKbhJLKk-139">
          <mxCell style="html=1;overflow=block;whiteSpace=wrap;shape=hexagon;perimeter=hexagonPerimeter2;whiteSpace=wrap;fontSize=9;fontColor=#333333;spacing=3;strokeColor=#5e5e5e;strokeOpacity=100;rounded=1;absoluteArcSize=1;arcSize=7;strokeWidth=2;" vertex="1" zOrder="58" parent="1">
            <mxGeometry x="2048" y="1209" width="60" height="48" as="geometry" />
          </mxCell>
        </UserObject>
        <mxCell id="OCLTKY3yRRcDZKbhJLKk-168" style="edgeStyle=orthogonalEdgeStyle;rounded=1;orthogonalLoop=1;jettySize=auto;html=1;exitX=0.5;exitY=1;exitDx=0;exitDy=0;entryX=0.5;entryY=0;entryDx=0;entryDy=0;strokeColor=#5E5E5E;fontSize=8;" edge="1" parent="1" source="OCLTKY3yRRcDZKbhJLKk-140" target="OCLTKY3yRRcDZKbhJLKk-165">
          <mxGeometry relative="1" as="geometry" />
        </mxCell>
        <UserObject label="Vehicle settings" lucidchartObjectId="cqhPhVQuO8Ms" id="OCLTKY3yRRcDZKbhJLKk-140">
          <mxCell style="html=1;overflow=block;whiteSpace=wrap;shape=hexagon;perimeter=hexagonPerimeter2;whiteSpace=wrap;fontSize=9;fontColor=#333333;spacing=3;strokeColor=#5e5e5e;strokeOpacity=100;rounded=1;absoluteArcSize=1;arcSize=7;strokeWidth=2;" vertex="1" zOrder="59" parent="1">
            <mxGeometry x="2126" y="1209" width="60" height="48" as="geometry" />
          </mxCell>
        </UserObject>
        <mxCell id="OCLTKY3yRRcDZKbhJLKk-146" style="edgeStyle=orthogonalEdgeStyle;rounded=1;orthogonalLoop=1;jettySize=auto;html=1;exitX=0.5;exitY=1;exitDx=0;exitDy=0;strokeColor=#5E5E5E;" edge="1" parent="1" source="OCLTKY3yRRcDZKbhJLKk-144" target="OCLTKY3yRRcDZKbhJLKk-37">
          <mxGeometry relative="1" as="geometry">
            <mxPoint x="380" y="550" as="targetPoint" />
            <Array as="points">
              <mxPoint x="2340" y="1268" />
              <mxPoint x="2390" y="1268" />
              <mxPoint x="2390" y="537" />
            </Array>
          </mxGeometry>
        </mxCell>
        <UserObject label="Build menu button" lucidchartObjectId="cqhPhVQuO8Ms" id="OCLTKY3yRRcDZKbhJLKk-144">
          <mxCell style="html=1;overflow=block;whiteSpace=wrap;shape=hexagon;perimeter=hexagonPerimeter2;whiteSpace=wrap;fontSize=9;fontColor=#333333;spacing=3;strokeColor=#5e5e5e;strokeOpacity=100;rounded=1;absoluteArcSize=1;arcSize=7;strokeWidth=2;" vertex="1" zOrder="59" parent="1">
            <mxGeometry x="2310" y="1200" width="60" height="48" as="geometry" />
          </mxCell>
        </UserObject>
        <UserObject label="Save dialog" lucidchartObjectId="RmhPJgn8N2LB" id="OCLTKY3yRRcDZKbhJLKk-150">
          <mxCell style="html=1;overflow=block;whiteSpace=wrap;;whiteSpace=wrap;fontSize=13;fontColor=#333333;spacing=7;strokeColor=#5e5e5e;strokeOpacity=100;rounded=1;absoluteArcSize=1;arcSize=7;strokeWidth=2;" vertex="1" zOrder="37" parent="1">
            <mxGeometry x="366" y="918" width="96" height="72" as="geometry" />
          </mxCell>
        </UserObject>
        <UserObject label="Help dialog" lucidchartObjectId="RmhPJgn8N2LB" id="OCLTKY3yRRcDZKbhJLKk-152">
          <mxCell style="html=1;overflow=block;whiteSpace=wrap;;whiteSpace=wrap;fontSize=13;fontColor=#333333;spacing=7;strokeColor=#5e5e5e;strokeOpacity=100;rounded=1;absoluteArcSize=1;arcSize=7;strokeWidth=2;" vertex="1" zOrder="37" parent="1">
            <mxGeometry x="-170" y="793" width="96" height="72" as="geometry" />
          </mxCell>
        </UserObject>
        <mxCell id="OCLTKY3yRRcDZKbhJLKk-154" value="Setting trackbars" style="swimlane;childLayout=stackLayout;horizontal=1;startSize=30;horizontalStack=0;rounded=1;fontSize=14;fontStyle=0;strokeWidth=2;resizeParent=0;resizeLast=1;shadow=0;dashed=0;align=center;" vertex="1" parent="1">
          <mxGeometry x="1710" y="1200" width="160" height="120" as="geometry">
            <mxRectangle x="1710" y="1200" width="140" height="30" as="alternateBounds" />
          </mxGeometry>
        </mxCell>
        <mxCell id="OCLTKY3yRRcDZKbhJLKk-155" value="Simulation speed&#xa;" style="align=left;strokeColor=none;fillColor=none;spacingLeft=4;fontSize=12;verticalAlign=top;resizable=0;rotatable=0;part=1;" vertex="1" parent="OCLTKY3yRRcDZKbhJLKk-154">
          <mxGeometry y="30" width="160" height="90" as="geometry" />
        </mxCell>
        <mxCell id="OCLTKY3yRRcDZKbhJLKk-157" value="Setting trackbars" style="swimlane;childLayout=stackLayout;horizontal=1;startSize=30;horizontalStack=0;rounded=1;fontSize=8;fontStyle=0;strokeWidth=2;resizeParent=0;resizeLast=1;shadow=0;dashed=0;align=center;" vertex="1" parent="1">
          <mxGeometry x="1915" y="1290" width="100" height="80" as="geometry">
            <mxRectangle x="1710" y="1200" width="140" height="30" as="alternateBounds" />
          </mxGeometry>
        </mxCell>
        <mxCell id="OCLTKY3yRRcDZKbhJLKk-158" value="Rain (mm/h)&#xa;fogginess (sight: m)&#xa;snow (mm)&#xa;slipperiness (%) &#xa;gravity???? (m/s2)&#xa;&#xa;&#xa;" style="align=left;strokeColor=none;fillColor=none;spacingLeft=4;fontSize=6;verticalAlign=top;resizable=0;rotatable=0;part=1;" vertex="1" parent="OCLTKY3yRRcDZKbhJLKk-157">
          <mxGeometry y="30" width="100" height="50" as="geometry" />
        </mxCell>
        <mxCell id="OCLTKY3yRRcDZKbhJLKk-163" value="Setting trackbars" style="swimlane;childLayout=stackLayout;horizontal=1;startSize=30;horizontalStack=0;rounded=1;fontSize=8;fontStyle=0;strokeWidth=2;resizeParent=0;resizeLast=1;shadow=0;dashed=0;align=center;" vertex="1" parent="1">
          <mxGeometry x="2028" y="1290" width="100" height="90" as="geometry">
            <mxRectangle x="1710" y="1200" width="140" height="30" as="alternateBounds" />
          </mxGeometry>
        </mxCell>
        <mxCell id="OCLTKY3yRRcDZKbhJLKk-164" value="Group selection (existing/new)&#xa;occurrence (%)&#xa;avg. speeding (km/h)&#xa;ignoring traffic light (%)&#xa;follow interval (s)&#xa;politeness (1-10)&#xa;reaction time (s)&#xa;&#xa;&#xa;" style="align=left;strokeColor=none;fillColor=none;spacingLeft=4;fontSize=6;verticalAlign=top;resizable=0;rotatable=0;part=1;" vertex="1" parent="OCLTKY3yRRcDZKbhJLKk-163">
          <mxGeometry y="30" width="100" height="60" as="geometry" />
        </mxCell>
        <mxCell id="OCLTKY3yRRcDZKbhJLKk-169" style="edgeStyle=orthogonalEdgeStyle;rounded=1;orthogonalLoop=1;jettySize=auto;html=1;exitX=0.5;exitY=1;exitDx=0;exitDy=0;strokeColor=#5E5E5E;fontSize=8;" edge="1" parent="OCLTKY3yRRcDZKbhJLKk-163" source="OCLTKY3yRRcDZKbhJLKk-164" target="OCLTKY3yRRcDZKbhJLKk-164">
          <mxGeometry relative="1" as="geometry" />
        </mxCell>
        <mxCell id="OCLTKY3yRRcDZKbhJLKk-165" value="Setting trackbars" style="swimlane;childLayout=stackLayout;horizontal=1;startSize=30;horizontalStack=0;rounded=1;fontSize=8;fontStyle=0;strokeWidth=2;resizeParent=0;resizeLast=1;shadow=0;dashed=0;align=center;" vertex="1" parent="1">
          <mxGeometry x="2140" y="1290" width="100" height="80" as="geometry">
            <mxRectangle x="1710" y="1200" width="140" height="30" as="alternateBounds" />
          </mxGeometry>
        </mxCell>
        <mxCell id="OCLTKY3yRRcDZKbhJLKk-166" value="Group of vehicle (selection)&#xa;weight (kg)acceleration (m/s2)&#xa;length (m)&#xa;max. speed (km/h)&#xa;&#xa;" style="align=left;strokeColor=none;fillColor=none;spacingLeft=4;fontSize=6;verticalAlign=top;resizable=0;rotatable=0;part=1;" vertex="1" parent="OCLTKY3yRRcDZKbhJLKk-165">
          <mxGeometry y="30" width="100" height="50" as="geometry" />
        </mxCell>
      </root>
    </mxGraphModel>
  </diagram>
</mxfile>
